<svg width="350" height="127" viewBox="0 0 350 127" fill="none" xmlns="http://www.w3.org/2000/svg">
<path d="M75.9928 49.3841H110.945V113.426H75.9928V49.3841Z" fill="#C6A88E"/>
<path d="M81.8558 49.1586H87.0422V113.2H81.8558V49.1586Z" fill="white"/>
<path d="M101.249 49.3841H106.661V113.426H101.249V49.3841Z" fill="white"/>
<path d="M106.661 115.793C106.661 119.094 100.805 121.769 93.5817 121.769C86.3584 121.769 80.5028 119.094 80.5028 115.793C80.5028 112.493 86.3584 109.818 93.5817 109.818C100.805 109.818 106.661 112.493 106.661 115.793Z" fill="white"/>
<path d="M106.661 46.1143C106.661 49.4146 100.805 52.09 93.5817 52.09C86.3584 52.09 80.5028 49.4146 80.5028 46.1143C80.5028 42.8141 86.3584 40.1386 93.5817 40.1386C100.805 40.1386 106.661 42.8141 106.661 46.1143Z" fill="white"/>
<path d="M0 24.5793H41.4916V113.2H0V24.5793Z" fill="#616B75"/>
<path d="M5.18646 24.5793H11.5004V113.2H5.18646V24.5793Z" fill="white"/>
<path d="M29.9912 24.5793H36.3052V113.2H29.9912V24.5793Z" fill="white"/>
<path d="M36.3052 116.47C36.3052 121.015 29.339 124.7 20.7458 124.7C12.1526 124.7 5.18646 121.015 5.18646 116.47C5.18646 111.924 12.1526 108.239 20.7458 108.239C29.339 108.239 36.3052 111.924 36.3052 116.47Z" fill="white"/>
<path d="M36.3052 20.0693C36.3052 24.6773 29.339 28.4128 20.7458 28.4128C12.1526 28.4128 5.18646 24.6773 5.18646 20.0693C5.18646 15.4614 12.1526 11.7259 20.7458 11.7259C29.339 11.7259 36.3052 15.4614 36.3052 20.0693Z" fill="white"/>
<path d="M35.8542 14.4319H81.8558V113.651H35.8542V14.4319Z" fill="#D0A535"/>
<path d="M41.4916 14.4319H48.4821V113.651H41.4916V14.4319Z" fill="white"/>
<path d="M69.2279 14.4319H75.9928V113.651H69.2279V14.4319Z" fill="white"/>
<path d="M75.9928 117.484C75.9928 122.591 68.2695 126.73 58.7422 126.73C49.215 126.73 41.4916 122.591 41.4916 117.484C41.4916 112.378 49.215 108.239 58.7422 108.239C68.2695 108.239 75.9928 112.378 75.9928 117.484Z" fill="white"/>
<path d="M75.9928 9.24542C75.9928 14.3515 68.2695 18.4908 58.7422 18.4908C49.215 18.4908 41.4916 14.3515 41.4916 9.24542C41.4916 4.13932 49.215 0 58.7422 0C68.2695 0 75.9928 4.13932 75.9928 9.24542Z" fill="white"/>
<path d="M134.634 75.5418V51.8645H153.745V56.2279H140.079V61.0987H146.641C149.505 61.0987 151.681 61.6963 153.17 62.8914C154.68 64.0865 155.436 65.8229 155.436 68.1004C155.436 70.4456 154.601 72.2721 152.933 73.58C151.264 74.8879 148.908 75.5418 145.863 75.5418H134.634ZM140.079 71.4829H145.559C146.957 71.4829 148.028 71.2123 148.772 70.6711C149.516 70.1073 149.889 69.2955 149.889 68.2357C149.889 66.1611 148.445 65.1238 145.559 65.1238H140.079V71.4829Z" fill="black"/>
<path d="M159.2 75.5418V57.3442H164.443V68.1681L173.305 57.3442H178.142V75.5418H172.899V64.7179L164.071 75.5418H159.2Z" fill="black"/>
<path d="M192.245 75.9477C190.757 75.9477 189.404 75.7335 188.186 75.3051C186.969 74.8541 185.909 74.1663 185.007 73.2418C184.127 72.2947 183.44 71.0882 182.943 69.6225C182.47 68.1568 182.233 66.4092 182.233 64.3797C182.233 62.9365 182.357 61.6173 182.605 60.4222C182.853 59.2271 183.225 58.1447 183.721 57.175C184.218 56.1828 184.849 55.3147 185.616 54.5705C186.405 53.8038 187.318 53.1724 188.355 52.6763C189.415 52.1577 190.61 51.7631 191.941 51.4925L200.6 49.7674L201.31 54.2999L193.666 55.822C193.215 55.9122 192.696 56.0363 192.11 56.1941C191.546 56.3294 190.971 56.5436 190.385 56.8368C189.821 57.1299 189.291 57.5471 188.795 58.0883C188.322 58.6069 187.938 59.2947 187.645 60.1516C187.352 60.9859 187.205 62.0232 187.205 63.2635C187.205 63.6468 187.217 63.94 187.239 64.1429C187.284 64.3459 187.318 64.5601 187.341 64.7856C187.386 65.0111 187.408 65.3606 187.408 65.8342L185.717 64.1767C186.213 63.1169 186.845 62.2149 187.611 61.4708C188.401 60.7266 189.303 60.1629 190.317 59.7795C191.355 59.3736 192.505 59.1707 193.767 59.1707C195.481 59.1707 196.981 59.5202 198.266 60.2192C199.574 60.8957 200.589 61.8541 201.31 63.0943C202.032 64.3346 202.393 65.7439 202.393 67.3224C202.393 69.0362 201.964 70.5471 201.107 71.8549C200.25 73.1403 199.055 74.1438 197.522 74.8653C196.011 75.5869 194.252 75.9477 192.245 75.9477ZM192.516 71.8549C193.395 71.8549 194.173 71.6633 194.85 71.2799C195.526 70.874 196.045 70.3441 196.406 69.6902C196.789 69.0137 196.981 68.2583 196.981 67.4239C196.981 66.6121 196.789 65.8905 196.406 65.2591C196.045 64.6277 195.526 64.1316 194.85 63.7708C194.173 63.41 193.384 63.2296 192.482 63.2296C191.603 63.2296 190.813 63.41 190.114 63.7708C189.415 64.1091 188.874 64.5826 188.491 65.1915C188.107 65.8003 187.916 66.5106 187.916 67.3224C187.916 68.1568 188.107 68.9235 188.491 69.6225C188.897 70.299 189.438 70.8402 190.114 71.2461C190.813 71.652 191.614 71.8549 192.516 71.8549Z" fill="black"/>
<path d="M203.409 75.508L203.679 71.1785C203.815 71.201 203.95 71.2236 204.085 71.2461C204.221 71.2461 204.345 71.2461 204.457 71.2461C205.089 71.2461 205.585 71.0657 205.946 70.7049C206.306 70.3441 206.577 69.8593 206.757 69.2505C206.938 68.6191 207.062 67.9087 207.129 67.1195C207.22 66.3302 207.287 65.5072 207.332 64.6503L207.603 57.3442H223.162V75.5418H217.886V60.3884L219.07 61.6737H211.087L212.203 60.3207L211.966 64.8871C211.899 66.5106 211.763 67.9989 211.561 69.3519C211.38 70.7049 211.076 71.8775 210.647 72.8697C210.219 73.8393 209.644 74.5947 208.922 75.1359C208.201 75.6546 207.276 75.9139 206.149 75.9139C205.743 75.9139 205.314 75.8801 204.863 75.8124C204.412 75.7448 203.927 75.6433 203.409 75.508Z" fill="black"/>
<path d="M228.237 75.5418V57.3442H233.479V68.1681L242.342 57.3442H247.178V75.5418H241.936V64.7179L233.107 75.5418H228.237Z" fill="black"/>
<path d="M260.775 75.8124C258.835 75.8124 257.11 75.4065 255.599 74.5947C254.111 73.783 252.927 72.678 252.048 71.2799C251.191 69.8593 250.763 68.247 250.763 66.443C250.763 64.6165 251.191 63.0041 252.048 61.6061C252.927 60.1854 254.111 59.0805 255.599 58.2912C257.11 57.4795 258.835 57.0736 260.775 57.0736C262.691 57.0736 264.405 57.4795 265.916 58.2912C267.427 59.0805 268.611 60.1741 269.468 61.5722C270.324 62.9703 270.753 64.5939 270.753 66.443C270.753 68.247 270.324 69.8593 269.468 71.2799C268.611 72.678 267.427 73.783 265.916 74.5947C264.405 75.4065 262.691 75.8124 260.775 75.8124ZM260.775 71.4829C261.654 71.4829 262.443 71.2799 263.142 70.874C263.841 70.4681 264.394 69.8931 264.8 69.149C265.206 68.3823 265.409 67.4803 265.409 66.443C265.409 65.3832 265.206 64.4812 264.8 63.737C264.394 62.9929 263.841 62.4179 263.142 62.012C262.443 61.6061 261.654 61.4031 260.775 61.4031C259.895 61.4031 259.106 61.6061 258.407 62.012C257.708 62.4179 257.144 62.9929 256.716 63.737C256.31 64.4812 256.107 65.3832 256.107 66.443C256.107 67.4803 256.31 68.3823 256.716 69.149C257.144 69.8931 257.708 70.4681 258.407 70.874C259.106 71.2799 259.895 71.4829 260.775 71.4829Z" fill="black"/>
<path d="M277.611 75.5418V60.456L278.795 61.6737H271.455V57.3442H289.01V61.6737H281.67L282.854 60.456V75.5418H277.611Z" fill="black"/>
<path d="M299.959 75.8124C297.885 75.8124 296.058 75.4065 294.48 74.5947C292.924 73.783 291.717 72.678 290.86 71.2799C290.004 69.8593 289.575 68.247 289.575 66.443C289.575 64.6165 289.992 63.0041 290.827 61.6061C291.683 60.1854 292.845 59.0805 294.311 58.2912C295.776 57.4795 297.434 57.0736 299.283 57.0736C301.064 57.0736 302.665 57.4569 304.086 58.2236C305.529 58.9677 306.668 60.0501 307.502 61.4708C308.337 62.8689 308.754 64.5488 308.754 66.5107C308.754 66.7136 308.742 66.9504 308.72 67.221C308.697 67.469 308.675 67.7058 308.652 67.9313H293.871V64.8532H305.879L303.849 65.7665C303.849 64.8194 303.657 63.9963 303.274 63.2973C302.891 62.5983 302.361 62.0571 301.684 61.6737C301.008 61.2678 300.219 61.0649 299.317 61.0649C298.415 61.0649 297.614 61.2678 296.915 61.6737C296.239 62.0571 295.709 62.6095 295.325 63.3311C294.942 64.0302 294.75 64.8645 294.75 65.8342V66.6459C294.75 67.6381 294.964 68.5176 295.393 69.2843C295.844 70.0284 296.464 70.6034 297.253 71.0093C298.065 71.3927 299.012 71.5844 300.095 71.5844C301.064 71.5844 301.91 71.4378 302.631 71.1446C303.376 70.8515 304.052 70.4118 304.661 69.8255L307.468 72.8697C306.634 73.8168 305.585 74.5496 304.323 75.0683C303.06 75.5644 301.605 75.8124 299.959 75.8124Z" fill="black"/>
<path d="M325.686 75.5418L319.597 66.9165L323.893 64.3797L331.909 75.5418H325.686ZM312.798 75.5418V57.3442H318.075V75.5418H312.798ZM316.519 68.6416V64.4135H322.878V68.6416H316.519ZM324.4 67.0518L319.462 66.5107L325.855 57.3442H331.47L324.4 67.0518Z" fill="black"/>
<path d="M345.062 75.5418V71.9902L344.723 71.2123V64.8532C344.723 63.7257 344.374 62.8463 343.675 62.2149C342.998 61.5835 341.95 61.2678 340.529 61.2678C339.559 61.2678 338.601 61.4257 337.654 61.7414C336.729 62.0345 335.94 62.4404 335.286 62.9591L333.392 59.2722C334.384 58.5731 335.579 58.0319 336.977 57.6486C338.376 57.2652 339.796 57.0736 341.239 57.0736C344.013 57.0736 346.167 57.7275 347.7 59.0354C349.233 60.3433 350 62.384 350 65.1577V75.5418H345.062ZM339.514 75.8124C338.094 75.8124 336.876 75.5757 335.861 75.1021C334.847 74.606 334.069 73.9408 333.527 73.1065C332.986 72.2721 332.716 71.3363 332.716 70.299C332.716 69.2166 332.975 68.2695 333.494 67.4577C334.035 66.6459 334.88 66.0145 336.03 65.5636C337.18 65.09 338.68 64.8532 340.529 64.8532H345.366V67.9313H341.104C339.864 67.9313 339.007 68.1342 338.533 68.5401C338.082 68.946 337.857 69.4534 337.857 70.0622C337.857 70.7387 338.116 71.2799 338.635 71.6858C339.176 72.0692 339.909 72.2608 340.834 72.2608C341.713 72.2608 342.502 72.0579 343.201 71.652C343.9 71.2236 344.408 70.6034 344.723 69.7916L345.535 72.227C345.152 73.3996 344.453 74.2903 343.438 74.8992C342.423 75.508 341.115 75.8124 339.514 75.8124Z" fill="black"/>
</svg>
